<?xml version="1.0" encoding="utf-8"?>
<!-- Generator: Adobe Illustrator 25.3.1, SVG Export Plug-In . SVG Version: 6.00 Build 0)  -->
<svg version="1.1" id="Capa_1" xmlns="http://www.w3.org/2000/svg" xmlns:xlink="http://www.w3.org/1999/xlink" x="0px" y="0px"
	 viewBox="0 0 380.6 356.5" style="enable-background:new 0 0 380.6 356.5;" xml:space="preserve">
<style type="text/css">
	.st0{fill:#FFFFFF;}
</style>
<g>
	<path class="st0" d="M5.2,341.5c8.7-6.4,17.3-12.9,26.1-19.2c2.2-1.6,2.2-3,0.6-4.9c-4-4.7-7.9-9.4-11.8-14.1c-1-1.2-2-2.5-3.4-4.3
		c12.2-1.5,23.5-4.6,35.6-1.1c-2.7,7.8-5.2,15.4-8.2,22.9c-1.2,3.1-1.1,4.5,2,6.7c9.8,6.8,19,14.4,28.5,21.6
		c-0.2,0.5-0.5,1.1-0.7,1.6c-1.2-0.2-2.5-0.2-3.7-0.7c-19.7-6.9-39.9-8.4-60.5-5.7c-1.5,0.2-3,0.1-4.5,0.2
		C5.2,343.5,5.2,342.5,5.2,341.5z"/>
	<path class="st0" d="M375.2,344.5c-7.3-0.4-14.6-1.1-21.9-1.3c-15.1-0.2-29.8,2-43.8,7.7c-0.4,0.1-0.9,0-2.6-0.2
		c6.1-5.5,11.5-10.5,17.1-15.1c3.4-2.9,7.1-5.5,11-7.6c3.3-1.9,3.8-3.9,2.5-7.3c-2.8-7.4-5.4-14.9-8.1-22.5c11.9,0,23.4,0,36.3,0
		c-6.5,8-12.1,14.8-17.8,21.8c9.6,7.2,18.5,13.8,27.3,20.5C375.2,341.9,375.2,343.2,375.2,344.5z"/>
	<path class="st0" d="M375.2,19.5c-4.5,3.1-8.9,6.2-13.4,9.3c-3.4,2.4-6.6,5.1-10.2,7.2c-2.7,1.6-3.1,3.3-1.4,5.6
		c3.2,4.2,6.6,8.3,10,12.4c1.4,1.7,2.8,3.5,4.7,5.9c-12.2,2-23.4,3.7-35.8,1.6c2-5.5,3.8-10.5,5.7-15.3c4.3-11.3,4.2-11.2-5-18.4
		c-7.6-5.9-14.8-12.1-22.2-18.1c0.3-0.5,0.5-0.9,0.8-1.4c2.1,0.7,4.1,1.4,6.2,2c17.3,4.7,34.7,8,52.8,5.3c2.6-0.4,5.3-0.1,7.9-0.1
		C375.2,16.9,375.2,18.2,375.2,19.5z"/>
	<path class="st0" d="M5.2,15.5c2.8,0,5.7-0.4,8.5-0.1c19.9,2.5,39.1-0.1,57.9-6.7c0.4-0.1,1-0.1,2.6-0.1c-1.6,1.8-2.6,3.1-3.8,4.2
		c-1.3,1.3-2.7,2.4-4.2,3.6c-6.4,5-12.4,10.6-19.3,14.8c-3.9,2.4-3.8,4.2-2.5,7.7c2.8,7.2,5.2,14.7,8,22.8
		c-12.2,1.8-23.6,0.8-35.5-1.9c6-7.2,11.4-13.8,17.1-20.7C24,31.6,14.6,24.6,5.2,17.5C5.2,16.9,5.2,16.2,5.2,15.5z"/>
	<path class="st0" d="M110.2,218.6c-3.2-0.6-6.3-1.1-10.2-1.8c0.3-1.6,0.5-5.5,1.1-5.6c4.2-0.3,9.5-1.4,12.4,0.6
		c4.6,3.3,7.5,8.8,11.5,13.9c3.2-2.5,7.3-5.8,11.4-9c0.5,0.1,1,0.2,1.5,0.3c-1.9,9.4-3.8,18.7-5.6,27.6c8,1.4,8.8,10.3,14.6,15.2
		c-3.1,1.1-4.3,4.9-8.3,2.3c-1.1-0.7-4,1.3-6.8,2.4c3.5,3.3,6.3,5.9,9.1,8.5c-2-9.5,5.2-10.3,11-12.5c-4.4-6.1-8.8-11.9-12.9-17.9
		c-0.9-1.2-1.5-3.1-1.3-4.5c2.1-13.4,4.9-26.8,6.3-40.3c0.7-6.7-0.7-13.8-1.9-20.5c-1.4-7.2-0.4-13.8,1.9-20.5
		c4-11.8,9.2-22.8,20-30.2c0.9-0.6,1.4-2.2,1.4-3.3c0-2.6-0.4-5.2-0.6-8.3c2.4,0.9,4.6,1.7,7.2,2.6c-1.9-4.5-9.5-3.4-7.7-10.8
		c-2.5,0.8-4.3,1.2-6,2c-5.1,2.2-12.1,1.2-15.3-2.4c-1.9-2.1-3.2-4.4,0.2-6.9c2,1.1,4,2.2,6,3.4c-5.5-5.5-7.1-5.6-12.4-0.3
		c-5.6,5.6-11,11.4-16.5,17.1c-0.3,0.3-0.3,0.8-0.8,0.2c4.9-2.4,9.8-4.7,14.7-7.1c1-0.5,2.4-0.8,3-1.6c3.3-4.1,6.2-2.3,9.5,0.5
		c-3.2,2.5-4.2,5.2-2.5,9.2c0.7,1.7-1.5,4.6-2.4,7c-0.5,0-0.9,0-1.4,0c1.5,1.9,2.8,4.1,4.6,5.7c2.9,2.4,2.9,4.9,1.3,7.9
		c-1.7,3.2-3.1,6.5-5,10.3c-4.8-3.1-9.4-6.1-14.1-9.2c-0.3,0.2-0.6,0.5-0.9,0.7c0.6,1,1,2.3,1.8,3.1c3.2,2.7,6.5,5.1,9.7,7.9
		c1,0.9,2,2.5,1.8,3.6c-0.6,4.4-1.7,8.7-2.7,13.4c-7.1-3.6-14.2-7.2-22.5-11.4c-1.6,7.6-3,14.4-4.6,21.6c-3.1-2.1-5.9-3.8-5.3-8.6
		c0.8-6.4,0.5-6.5-6.7-14.7c-0.9,6.6-1.8,13-2.4,19.3c-0.4,4-0.3,7.8,4,10.3c1.2,0.7,1.2,3.3,1.8,5.2c-8.1,1-14.5-5.2-13.6-13.6
		c0.9-8.7,2.6-17.4,4.4-26c0.6-2.7,2.7-5.1,4-7.6c-0.4,0.1-1.3,0.3-3.3,0.6c1-2.9,1.4-5.5,2.7-7.5c2-3,1.8-4.7-1.2-6.9
		c-7.2-5.1-13.9-10.8-21.1-16c-3.8-2.7-7.5-5-5.7-10.4c-1.2,2-2.6,5.3-3.4,5.2c-2.3-0.4-4.7-1.9-6.4-3.5c-7-6.4-7-17.7,0.7-21.8
		c2-1.1,4.2-1.6,7-2.7c-5.2-14.1-10.3-28-15.7-42.7C61.9,35,74.3,29.3,86.9,24.3c27.1-10.8,55.2-17.5,84.3-19
		c16.4-0.9,32.9,0,49.3,1.3c32.5,2.6,63.2,12.2,92.9,25.1c5,2.2,9.9,4.8,14.9,7c3.1,1.3,3.7,3,2.5,6.2c-4.8,12.6-9.2,25.3-14.2,39
		c3,0,5.2-0.1,7.4,0c6.4,0.4,11.3,4.1,12.3,9.1c1.3,6.9-2.1,15.4-7.3,17.8c-2.6,1.2-5.5,1.9-6-1.3c-1,1.3-2.2,3.3-3.9,4.7
		c-7,5.6-14.1,11.1-21.4,16.3c-3.1,2.2-2.8,4.4-1.2,7.2c1.3,2.3,2.3,4.9,3.8,8.1c-2.8-0.5-4.4-0.8-5.9-1.1c-2.1-1.9-4.1-3.9-7-6.5
		c-0.6,1.6-1.9,3.2-1.6,4.4c0.3,1.1,2.3,1.9,3.7,2.2c1.6,0.3,3.3-0.1,4.9-0.1c10.6,11.1,9.1,25.4,10.2,39.1c0.1,1.2-0.5,2.6-1.1,3.8
		c-0.6,1.2-1.5,2.2-2.8,4.1c1.7-0.6,2.6-0.8,4.7-1.6c-1.4,8.5-2.3,16.3-4,23.9c-0.8,3.5-2.3,7.3-4.7,10c-5,5.7-13.5,3.6-16-3.5
		c-9,10-8.7,13.4,2.3,22.7c5.2-5.9,5.6-16.2,16.8-17.1c-1.1,2.8-1.6,5.8-3.3,8c-7.3,9.7-9.3,18.5,1.5,27.6
		c4.5,3.8,7.2,9.8,11.2,15.5c2-1.1,4.1-2.2,6.7-3.6c3.2,9,6.4,17.7,9.5,26.4c1.7,4.7,3.3,9.4,5.3,14c1.6,3.6,0.5,5.3-2.9,7
		c-17.8,8.6-36,16.5-55.2,21.5c-14.3,3.8-28.6,8.6-43.2,9.6c-23.6,1.7-47.6,1.7-71.2,0.4c-27-1.5-52.8-9.8-77.9-19.8
		c-9.4-3.8-18.5-8.3-27.6-12.8c-1.1-0.5-2.2-3.3-1.8-4.5c4.8-13.8,10-27.4,15.2-41.6c4.3,1.9,8.3,3.7,12,5.3
		c8.2-11,16.2-21.6,24.5-32.7c-3.2-6.4-6.8-13.5-10.9-21.6c3.3,0.9,4.9,1.3,6.6,1.8l-0.2-0.1c3.4,4.6,6.9,9.3,10.7,14.4
		c3-2.8,5.9-5.6,8.8-8.4c0.4-0.4,0.6-1.7,0.2-2.2c-2.5-4-5.2-7.9-7.8-11.8C110.1,218.4,110.2,218.6,110.2,218.6z M243.9,91.7
		c6.1-1.4,11.4-0.1,15.9,4.4c6.5,6.5,13.2,12.9,20.5,20.1c7.3-5.7,15.4-11.9,23.5-18.2c2.3-1.8,4.2-4.3,7.7-2.7
		c0.1,0,0.4-0.3,0.7-0.6c-1.1-1-2.1-2-3.1-2.9c1.7-2.4,3.2-4.5,4.9-6.9c-34-17-69.4-28.1-107.8-30.5c-1.8,7.3-3.6,14.4-5.4,21.6
		c0.3,0.1,0.6,0.2,0.9,0.3c1.3-2.7,2.5-5.4,4.3-9.3c0,3.2,0,4.9,0,6.6c11.4,3.5,16.4,10.1,14.3,19.2c-1.7-0.5-3.4-0.9-5-1.3
		c-0.1,0.4-0.2,0.8-0.4,1.2c8.5,3.5,16.9,7.1,24.4,10.2c0.6-2.9,0.8-5.3,1.6-7.4c0.6-1.4,2-2.6,3.1-3.8L243.9,91.7z M295.9,184.9
		c3-7.4-0.7-30.4-5.4-32.5c2.8,5.9,2.8,5.9-4.1,11.6c0.4,6.2,5.4,13.4-4.2,18.1c-0.4-7.8-1.2-15.3-9.3-20.8c-5.9,2.9-13,6.4-20,9.9
		c-4.6-12.8-4.3-13.7,5-22c1-0.9,2.3-1.5,3.1-2.5c0.8-1,1.1-2.3,1.6-3.4c-0.3-0.2-0.5-0.4-0.8-0.5c-4.4,3-8.9,6.1-13.1,9
		c-0.7-0.5-0.8-0.6-0.9-0.7c-0.2-0.4-0.4-0.9-0.6-1.3c-3.5-6.6-8.5-13.2,0.4-19.7c0.5-0.4,0.1-2.7-0.6-3.7c-0.8-1.2-2.2-1.8-3.9-3.1
		c1.8-2.7,3.5-5.3,5.8-8.6c-2-1.6-3.9-3.8-6.3-4.7c-3.6-1.3-8.1-1-11.4-2.7c-7.6-3.9-16.6-5.2-22.7-12c-3.6-4.1-3.6-9.3,1-13.2
		c-1.9-0.3-3.4-0.5-4.8-0.7c-1.6,8.3-1.9,15.7,8.7,20c-3.8,0.8-5.5,1.2-7.4,1.6c0,2.8,0.1,5.3,0,7.7c-0.4,5.4,1.5,8.2,7.1,9.9
		c22.3,6.7,34.1,31.3,34.8,50.6c0.2,6.1-3.2,12.3-2.8,18.4c0.9,13.2,2.5,26.4,4.9,39.4c1.6,8.5,1.3,15.6-5.1,21.9
		c-3.1,3-5.6,6.8-8.8,10.7c3.9,0,6.8,0,9.8,0c-1.3-8.1,5.1-12,8.5-17.6c2.9,1.7,5.2,3.1,7.5,4.5c0.3-0.2,0.7-0.5,1-0.7
		c-3.4-4.4-8.5-7.7-8.7-14.2c-0.1-5.5-1.8-11.1-2.9-17.9c6.3,4.9,11.1,8.7,16.1,12.6c10.2-22,20.1-20.5,26.8-14.6
		c1.5-7.1,3-13.9,4.4-20.8c-1.6,0.3-4.1,0.7-6.5,1.1c-2.6-5.3,2.4-6.4,4.1-9.1L295.9,184.9z M173.3,54.3
		c-36.2,2.5-69.8,13-101.7,28.6c3.1,3.1,5.9,5.9,9.1,9.1c-2.8,1.7-4.3,2.6-5.9,3.6c5.5-2.9,8.4,0.9,12.1,3.9
		c8.1,6.6,16.7,12.6,24.9,18.7c2-2.5,3.2-4.3,4.7-5.8c4.3-4.4,8.9-8.4,13-13c4.8-5.4,10-9.1,15.9-8.3c2.2-1.8,3.2-3,4.5-3.6
		c4-1.9,8.2-3.6,12.2-5.6c1.3-0.7,2.8-1.9,3.2-3.2C168.1,70.7,170.6,62.7,173.3,54.3z M154.1,268.2c-4.6,14.1-12.6,15.8-22.3,6.2
		c-1.4-1.4-2.9-2.8-4.6-3.8c-1-0.6-2.6-1-3.5-0.6c-11,4.7-22,9.6-33.5,14.7c68.6,28.8,136.5,27.4,205-1.5c-9.1-4-17.5-7.5-25.7-11.4
		c-3-1.4-5-1.5-7.3,1.2c-3.9,4.5-8.4,8-14.9,7.5c-0.7-0.1-1.5,0.8-2.3,1.3c-7.8,5.3-16.2,9-25.7,11.4c0.7-2.2,1.2-3.7,1.7-5.2
		c-3.4,5.8-8.2,9-14.8,9.3c-6.8,0.3-13.7,0.3-20.5,0c-7.6-0.3-12.4-5.3-13.8-13c-0.4-2.5-1.4-5.5-3.2-6.9
		C164.5,274.1,159.5,271.5,154.1,268.2z M155.2,181.7c0,3,0.2,4.7,0,6.3c-0.6,4.1,0.9,5.9,5.1,6.6c5.4,0.9,10.7,2.4,15.9,4.3
		c1.7,0.6,3.7,3.1,3.9,4.8c0.8,9.8,1.2,19.6,1.5,29.3c0.4,10.5,0.4,20.9,0.9,31.4c0.1,1.7,1.8,4.6,2.9,4.7c6.7,0.4,13.5,0.2,20,0.2
		c1.3-21.2,2.6-41.8,3.7-62.2c0.4-6.8,0.9-8,7.5-9.6c4.5-1.1,9.1-1.8,13.6-3.2c1.7-0.5,3.8-2.3,4.2-3.9c0.7-2.4,0.2-5.2,0.2-7.6
		c-0.9-0.3-1.2-0.6-1.5-0.5c-10.4,3.5-20.7,6.9-31,10.6c-1.2,0.4-2.5,2.8-2.4,4.2c0.2,5.5,0.5,11,1.4,16.4
		c1.1,6.3-1.7,10.2-7.1,14.5c-2.3-3.8-6.1-7.2-6.3-10.8c-0.4-6,1.8-12.1,2.3-18.2c0.2-1.8-0.9-5.1-2.3-5.6
		C177.2,189.3,166.6,185.7,155.2,181.7z M218,313.7c-19.4,0-38.8,0-57.1,0c0.5,3,1.1,6.4,1.8,10.5c-4.9-0.7-8.6-1.2-12.1-1.7
		c-0.6-7.4-0.3-7.8,6.3-10.1c-6.2-0.9-11-1.6-15.8-2.2c3.5,3.9,2.4,7.5,1.1,11.2c-0.4,1.2-1.2,2.6-0.8,3.7c1.6,4.8,1.7,8.7-4.2,11
		c4.9,0.6,9.8,1.1,15.7,1.8c-3.8-3-5.4-9.2-2.8-10.3c3.3-1.4,7.5-0.3,13-0.3c-2.2,4.9-3.8,8.2-5.5,12c3.6,0.3,8.2,0.7,12.7,1
		c-1-2.3-2.8-4.5-2.3-5.8c1.7-4.9,2.4-9.7,2.4-14.9c0-1.2,3.4-2.8,5.4-3.3c0.8-0.2,3.1,2.1,3.2,3.5c0.4,2.9-0.7,6.1-0.3,9
		c0.6,4.4,2,8.7-3.1,11.8c4.6,0,9.2,0,14.5,0c-5-3.6-5-7.4-2.2-11.7c0.4-0.6,0.5-1.5,0.4-2.2c-0.4-3.2-1-6.3-1.8-11.2
		c4.3,1.1,8.6,1,9.5,2.7c1.4,2.7,0.4,6.6,0.4,10.9c3.1,3.1,2.9,7.6-0.9,11c8.3,0,16.9,0,25.4,0c0-3.5,0-6.2,0-9.3
		c-4.8,5-11.6,7.9-13.7,5.5c-1.7-1.9-1.7-5.4-2.4-8.2c0.6-0.4,1.1-0.8,1.7-1.2c2.6,1.3,5.1,2.5,7.5,3.7c0-2.9,0-6,0-9
		c-2.7,1.8-5.2,3.4-7.7,5c-0.5-0.3-0.9-0.5-1.4-0.8c0.2-2.7-0.7-6.9,0.7-7.9c4.1-2.8,8.5-1.1,12.4,2.5
		C218,317.8,218,315.9,218,313.7z M151.8,29.4c1.8-1.6,3.3-2.8,4.4-4.1c3-3.7,1.5-9.8-2.8-10.5c-9.2-1.5-17.9,1.3-27.9,3.4
		c6.6,2.6,7.6,6.1,5.2,13.6c4.8,5.8,5,9.9,0.1,15c6-0.8,11.3-1.6,16.6-2.3c0.2-0.4,0.4-0.8,0.6-1.3c-7.6-0.8-5.5-6-5.8-11.3
		c9.8,6.7,16.5,17.5,29.7,15.9C165.3,41.7,158.7,35.7,151.8,29.4z M278.5,36.1c-0.3,1.5-0.4,3.2-0.8,4.7
		c-3.1,10.2,2.7,20.7,13.1,23.6c5.5,1.6,16.4-1,18.3-4.4c3.8-6.6,2.9-14.8-2.4-20.9c-6.1-6.9-13.4-9.1-20.8-6.2
		C283.4,33.9,281,35,278.5,36.1z M273.8,315.2c0.9-1.2,1.6-1.8,1.9-2.5c0.8-2.1,2.4-4.6,1.9-6.5c-0.7-2.8-3.5-4.4-6.6-3.7
		c-6.8,1.6-13.6,3.4-20.4,5.1c-0.1,0.5-0.2,0.9-0.2,1.4c7.4,1.2,4.4,6.9,5.8,10.9c1.5,4.2,6.3,7.3,1.2,13.3c5.4-1.7,9.9-3,13.1-4
		c-1.9-3.3-3.6-6.2-5.3-9.2c0.5-0.4,1-0.8,1.5-1.1c4,2.5,7.8,5.7,12.1,7.5c4.2,1.8,9,2.1,13.6,3.1c0.1-0.5,0.2-1,0.4-1.5
		C286.6,323.9,280.5,319.7,273.8,315.2z M260.8,338.9c-6.2-5.4-12.2-10.5-18-15.5c1.7-1.9,3.4-3.1,4.4-4.8c2.2-3.7,0.2-8.1-4-8
		c-7.5,0.3-15,1.3-22.1,2c1.7,3,4.1,5.2,3.9,7.1c-0.5,4.2,1.4,7.8,1.9,11.6c0.3,2.2-0.4,4.5-0.8,7.3c3.7-0.7,8.1-1.5,11.3-2.2
		c-1.3-3.5-2.4-6.6-3.6-9.8c0.4-0.3,0.9-0.5,1.4-0.8C242.8,331.6,249,339.9,260.8,338.9z M227.8,13.3c1.1,3.2,2.6,5.7,2.8,8.3
		c0.3,3.8-0.1,7.6-0.6,11.4c-0.6,4.5-4,7.1-8.4,6.8c-5.4-0.4-8.2-3-8.1-7.9c0.2-5.7,0.9-11.4,1.4-16.8c2.4-0.6,3.8-0.9,5.2-1.2
		c-0.1-0.4-0.1-0.8-0.1-1.1c-5.1-0.5-10.2-1-16.4-1.7c4.9,5,4.8,9,1.5,14.4c0.7,4.2,0.8,7.7,1.9,10.8c1.6,4.8,10.4,8.2,17.4,7.1
		c7.1-1.2,9.4-4.5,10.6-11.5c1-5.8-1.8-13.5,6.5-17.3C236.6,14,232,13.6,227.8,13.3z M62.2,309.2c4.1,2.1,8,4.6,12.4,6.1
		c3.8,1.3,8.1,2.3,12.1,2.1c8.8-0.4,13.6-10.5,8.7-17.8c-5.3-7.8-14.3-9.8-22.5-13.5c3.4,4.1,1.4,7.4-1.1,10.2
		c-1.4,1.6-2,2.9-2.4,5.1C68.7,304.5,68.1,309.4,62.2,309.2z M119.3,312.8c-3.3,0.7-5.9,1.3-10.2,2.2c1.3-4,1.5-7.2,3.1-8.5
		c1.1-0.9,4.6,0.6,6.6,1.7c1.9,1,3.3,2.9,5.2,4.7c0.7-2,1.4-3.9,2.3-6.3c-8.5-2.5-16.6-4.9-24.6-7.3c2.8,3.7,3,7,0.4,10.7
		c-0.8,1.2-1.7,2.7-1.7,4.1c0,4.2-0.9,7.7-6.2,10c9.2,2.9,17.3,5.5,25.8,8.1c0.8-2.7,1.6-5,2-6.3c-4.4-0.4-8.5-0.4-12.5-1.2
		c-1-0.2-2.2-2.6-2.2-3.9c0-1.6,1.3-3.1,2-4.7c1.7,0.9,3.5,1.5,4.9,2.7c0.9,0.8,1.2,2.3,2.4,4.6
		C117.7,318.9,118.5,315.8,119.3,312.8z M296.4,318c0.1,0.5,0.3,1,0.4,1.5c4-1.7,8.3-2.9,11.8-5.3c7.4-5,6.9-15.9,0.1-21.2
		c-7.8-6.1-21.2-1.4-24.8,8.2c-1.3,3.4-1.9,9,0,11.2C286.7,315.7,290.4,320.2,296.4,318z M197,12c-2.9-0.3-5.2-0.3-7.4-0.7
		c-11.2-2.1-18.1,1.5-22.6,12.1c-0.6,1.4-1.7,3.3-1.3,4.4c3,7.4,7.6,13.2,16.1,14.5c6.6,1.1,15.2-3.8,16.8-10.4
		c-1.9,1.3-3.4,2.2-4.8,3.4c-3.6,3.1-7.7,4.6-11.8,1.8c-3.3-2.2-6.9-5.1-3.7-10.1c0.3-0.4,0-1.3-0.2-1.9c-1.8-5.8-0.4-10,4-12
		c4-1.8,8.3,0.4,11.3,5.5c0.7,1.2,1.7,2.3,3.5,4.6C197,18.5,197,15.4,197,12z M103.2,44.9c-1.2,3.4-1.9,6.4-3.3,8.9
		c-3.9,7.3-11.2,7.5-15.8,0.6c-0.4-0.6-1.2-1-1.8-1.3c-4.3-2.3-6.3-7-4.7-11.1c1.6-4.2,5.7-6,10.6-4.9c1.9,0.5,3.9,0.8,5.8,1.2
		c0.5-0.7,1-1.4,1.5-2.1C93,34,90.4,31.6,89,30.2C73.3,38,67.9,48.5,74.7,63c6.9,2.4,13.4,5.4,20.6,0.8
		C102.2,59.3,105.7,52.8,103.2,44.9z M253.7,41.9c1.2-2.5,2.4-5.1,3.6-7.7c0.3-0.8,0.6-1.7,0.4-2.5c-1.1-5.2-0.4-9.5,6.8-11.9
		c-6.9-1.6-12.3-2.9-18.5-4.4c5.4,6.2,5.1,9.6-0.3,15.3c2.5,4.7,0.5,10.8-5,13.9c7.3,1.8,14.1,3.6,21,5.3c8,2,8.4,1.8,10-8.1
		C265.6,46.4,260,46,253.7,41.9z M152.9,156.3c0.6-0.1,1.2-0.2,1.7-0.5c13.6-6.1,26.7-12.9,36.8-24.2c1.9-2.1,3.4-2.9,5.6-0.4
		c8.8,10.2,20.2,16.6,32.1,22.2c2.6,1.2,5.2,2.3,7.7,3.4c-15.4-9.8-30.5-19.6-42.4-34.3C182.8,136.7,168.2,146.9,152.9,156.3z
		 M128.7,47.9c-7.7-4-9.3-7.2-7.7-12.6c-1.6-3-3.4-5.3-4-7.8c-0.5-2.4,0.4-5,0.7-7.7c-4.8,1.5-10.2,3.3-16.2,5.3
		c7.5,2.5,9.3,6.2,7.7,11.9c1.6,3.3,3.3,5.6,3.8,8.1c0.5,2.3-0.3,5-0.5,7.7C117.2,51.2,122.6,49.7,128.7,47.9z M205.4,276
		c-7.3-0.4-14.6-0.8-21.6-1.2c1.4,4.2,7.1,9.5-0.7,15.1c8.6,0.5,16.9,0.7,25.1,0.3c1.8-0.1,3.5-2.7,5.2-4.1
		c-0.1-0.1-0.3-0.3-0.4-0.4c-2.3,1.1-4.7,2.2-7.5,3.5C205.4,284,205.4,280.1,205.4,276z M240.9,277c-0.6-1.9-1.3-4-2.3-7.1
		c3,0.5,4.9,0.5,6.4,1.2c6.7,3,9.9,1.6,12.9-6.4c-3-0.8-5.9-1.5-9.5-2.4c1.6,3.5,2.8,5.9,4.5,9.5c-3.1-0.5-5.1-0.3-6.4-1.2
		c-3.6-2.3-7-2.1-10.7-0.4c-2.7,1.2-5.6,2.1-8.3,3.3c-7.6,3.4-7.5,3.4-5.6,12C228.4,282.6,234.9,279.7,240.9,277z M269.3,116.5
		c-6.3-6.4-11.1-14.3-18.7-17.8c0.3,0.6,1.5,2,1.3,3c-0.6,2.4-1.9,4.7-2.7,6.3C256.5,108.6,260.4,118.5,269.3,116.5z M176.6,119.5
		c7.9-0.9,15.9-1.7,25.3-2.8c-6.3-0.3-11.2-0.6-16.5-0.8c1.1-15.4,2-30.6-4.1-45.1c3,15.5,5.2,31,0.1,46.5
		C179.7,118.1,177.9,118.9,176.6,119.5z M278.2,161.8c-5.6-15.2-15.2-28.3-28.6-37.7C259,136.5,268.8,149.4,278.2,161.8z
		 M150.7,93.3c0.9,2.7,1.9,5.8,3,8.9c9.7-2.8,11.1-4.7,9.2-12.2C158.8,91.2,154.6,92.3,150.7,93.3z M137.5,126
		c-11.5,9.8-21.6,20.7-26.7,35.9C120,149.6,128.8,137.8,137.5,126z M171.3,96.1c0.9-1.1,1.1-1.3,1.1-1.3c-0.9-2.6-1.9-5.1-3.2-8.5
		c-1.2,1.4-2.9,2.8-2.7,3.1C167.8,91.7,169.5,93.7,171.3,96.1z"/>
	<path class="st0" d="M98.3,226.6c-4.7-2.7-6.8-7.2-7.7-12.3c-1.3-7.2-2.2-14.4-3.3-21.6c-0.1-0.9,0.1-1.8,0.2-2.9
		c7.2,3.2,8.9,9.1,9.3,15.9c0.2,3.3,0.7,6.6,1.4,9.8c0.7,3.6,3,4.7,6.6,3.7c1.7-0.5,3.6-0.5,5.4-0.7l-0.2-0.1
		c1.3,5.2-0.5,7.9-5.6,8.1c-2.1,0.1-4.2,0-6.3,0L98.3,226.6z"/>
	<path class="st0" d="M112.4,208.4c-5.3-0.1-8.6-1-8.1-7c0.3-3.6-0.4-7.4-1.3-10.9c-0.6-2-2.8-3.4-3.8-5.4c-1.1-2.1-1.5-4.5-2.2-6.8
		c2.2,0.3,4.9,0,6.6,1.1c4,2.6,6.5,6.5,7,11.5C111.1,196.8,111.8,202.5,112.4,208.4z"/>
	<path class="st0" d="M328.6,34.2c-9.7-5-19.5-10-29.6-15.1c1.4-3.1,2.6-5.8,4.1-9c9.1,7.8,17.7,15.3,26.3,22.8
		C329.1,33.2,328.9,33.7,328.6,34.2z"/>
	<path class="st0" d="M330.3,325.8c-9,7.7-17.9,15.4-27.4,23.6c-1.3-3.1-2.3-5.8-3.8-9.3c10.3-5.3,20.4-10.4,30.4-15.5
		C329.8,325,330,325.4,330.3,325.8z"/>
	<path class="st0" d="M52.2,32.8c8.7-7.3,17.4-14.7,26.6-22.4c1.4,2.9,2.6,5.4,4.2,8.6c-10.1,5.2-20,10.4-29.9,15.5
		C52.8,33.9,52.5,33.3,52.2,32.8z"/>
	<path class="st0" d="M53.2,325c9.8,4.9,19.6,9.8,29.7,14.9c-1.5,3.4-2.7,6-4.1,9.2c-9.1-7.9-17.7-15.3-26.4-22.8
		C52.7,325.9,52.9,325.5,53.2,325z"/>
	<path class="st0" d="M296.1,184.7c-4.8,0.3-6.7,2.8-7.1,7.6c-0.4,5-1.6,10-2.5,15.2c-2.1,0.2-3.8,0.4-6.9,0.6
		c1.4-8,2.1-15.6,4.1-22.8c1.5-5.3,6.8-7.8,12.6-7.2c-0.1,2.2-0.2,4.5-0.3,6.7C295.9,184.9,296.1,184.7,296.1,184.7z"/>
	<path class="st0" d="M244.1,91.6c-3.3,2.2-6.5,2.1-10,0c-2.5-1.6-5.3-2.7-8.1-3.6c-4.4-1.5-5.9-4.8-6.1-10.2
		c9.1,3.9,17.5,7.4,26.1,11.1c-0.8,1.1-1.4,2-2.1,2.9C243.9,91.7,244.1,91.6,244.1,91.6z"/>
	<path class="st0" d="M146.9,280.9c2.4-0.9,5.6-3.2,7.2-2.4c7.2,3.4,17.1,3.8,19.2,15.5c-9.2-3.9-17.8-7.5-26.3-11
		C147,282.2,147,281.5,146.9,280.9z"/>
	<path class="st0" d="M140.9,29.2c-0.6-3.9-1.1-7.4-1.6-10.9c6.4-1.7,8.9-0.8,9.7,3.7C149.8,26,147.9,27.9,140.9,29.2z"/>
	<path class="st0" d="M282.2,54.6c0.2-6.7,7.1-16.6,12.2-17.4c2.9-0.5,7.1,0.2,8.9,2.1c1.6,1.7,1.9,6.5,0.6,8.6
		c-2.7,4.4-6.5,8.3-10.5,11.7c-1.4,1.2-5,1.1-6.8,0.1C284.5,58.5,283.2,55.8,282.2,54.6z M289.4,46c0.8,2.5,1.1,4.9,2.4,6.4
		c0.8,0.8,4.5,0.5,4.9-0.3c0.9-2.1,0.8-4.7,1.2-7.9C294.5,44.9,292.4,45.3,289.4,46z"/>
	<path class="st0" d="M263.5,316.4c1.2-3.8-4.9-7.6,1-10.4c2.6-1.2,4.8,0.1,5.6,3.1C271.3,313.2,269.9,314.9,263.5,316.4z"/>
	<path class="st0" d="M233.2,323.7c-0.5-3.5-1-6.5-1.6-10c3.5,0.2,7.3-1.9,8.4,3.2C241.1,322.1,237.2,322.4,233.2,323.7z"/>
	<path class="st0" d="M82.6,290.9c2.9,3,6.4,5,7.1,7.7c1.5,6.1-1.2,11.4-6.2,15.2c-3.6,2.7-6.8,0.5-10.6-1.5
		C76,305.6,78.9,299.1,82.6,290.9z"/>
	<path class="st0" d="M307.2,311c-1,1-2.4,3.6-4.6,4.4c-1.7,0.7-4.9-0.2-6.4-1.5c-4.4-3.8-7.1-8.9-6.2-14.9c0.3-1.9,2.1-4.3,3.9-5
		s4.7-0.2,6.2,1C304.5,298.6,306.9,303.4,307.2,311z M301,309.1c0.2-2.7,0.8-4.7,0.4-6.5c-0.2-0.7-3.1-1.7-3.8-1.2
		c-1.5,1.1-2.3,3-3.7,5C296.4,307.4,298.1,308,301,309.1z"/>
</g>
</svg>
